Coordinates
version=1
nRows=21
nColumns=12
inDegrees=yes

Units are S.I. units (second, meters, Newtons, ...)
Angles are in degrees

endheader
time	SC_y	SC_z	SC_x	AC_y	AC_z	AC_x	GH_y	GH_z	GH_yy	EL_x	PS_y
       0.0              -29.48          10.47           58.8          45.75          7.754         -17.68          21.37          66.93         -102.7          66.09          37.68
   0.02495              -29.48          10.47           58.8          45.75          7.753         -17.68          21.35          66.93         -102.7           66.1          37.69
   0.04989              -29.48          10.48           58.8          45.76          7.752         -17.68          21.32          66.92         -102.6          66.11           37.7
   0.07484              -29.48          10.48          58.79          45.76          7.751         -17.68           21.3          66.92         -102.6          66.12          37.71
   0.09979              -29.48          10.48          58.79          45.76           7.75         -17.68          21.28          66.92         -102.6          66.13          37.72
    0.1247              -29.48          10.48          58.79          45.76          7.748         -17.68          21.25          66.91         -102.6          66.15          37.73
    0.1497              -29.48          10.48          58.78          45.77          7.747         -17.68          21.23          66.91         -102.6          66.16          37.75
    0.1746              -29.48          10.48          58.78          45.77          7.746         -17.68           21.2           66.9         -102.6          66.17          37.76
    0.1996              -29.48          10.49          58.77          45.77          7.744         -17.68          21.17          66.89         -102.5          66.18          37.78
    0.2245              -29.48          10.49          58.77          45.78          7.743         -17.68          21.13          66.89         -102.5           66.2           37.8
    0.2495              -29.48          10.49          58.76          45.78          7.741         -17.68           21.1          66.88         -102.5          66.22          37.82
    0.2744              -29.48          10.49          58.76          45.78          7.739         -17.69          21.06          66.87         -102.5          66.23          37.84
    0.2994              -29.48          10.49          58.75          45.79          7.737         -17.69          21.02          66.86         -102.4          66.25          37.86
    0.3243              -29.48           10.5          58.75          45.79          7.735         -17.69          20.97          66.86         -102.4          66.27          37.88
    0.3492              -29.48           10.5          58.74           45.8          7.733         -17.69          20.93          66.85         -102.4          66.29          37.91
    0.3742              -29.48           10.5          58.73          45.81           7.73         -17.69          20.87          66.84         -102.3          66.32          37.93
    0.3991              -29.48          10.51          58.72          45.81          7.727         -17.69          20.82          66.83         -102.3          66.34          37.96
    0.4241              -29.48          10.51          58.71          45.82          7.724         -17.69          20.76          66.81         -102.2          66.37           38.0
     0.449              -29.48          10.51           58.7          45.83          7.721         -17.69          20.69           66.8         -102.2           66.4          38.03
     0.474              -29.47          10.52          58.69          45.83          7.717         -17.69          20.61          66.79         -102.1          66.43          38.07
    0.4989              -29.47          10.52          58.68          45.84          7.713         -17.69          20.53          66.77         -102.1          66.47          38.11
